<?xml version="1.0" standalone="no"?>
<!DOCTYPE svg PUBLIC "-//W3C//DTD SVG 20010904//EN"
 "http://www.w3.org/TR/2001/REC-SVG-20010904/DTD/svg10.dtd">
<svg version="1.0" xmlns="http://www.w3.org/2000/svg"
 width="32.000000pt" height="32.000000pt" viewBox="0 0 32.000000 32.000000"
 preserveAspectRatio="xMidYMid meet">
<metadata>
Created by potrace 1.16, written by Peter Selinger 2001-2019
</metadata>
<g transform="translate(0.000000,32.000000) scale(0.100000,-0.100000)"
fill="#000000" stroke="none">
<path d="M225 238 c-33 -17 -63 -36 -67 -43 -4 -6 -17 -11 -30 -9 -13 1 -26 3
-30 3 -5 1 -8 8 -8 17 0 8 -4 12 -10 9 -5 -3 -10 2 -10 12 0 15 -2 15 -9 4 -8
-12 -12 -12 -24 -2 -22 17 -24 7 -23 -89 1 -62 4 -84 14 -83 6 2 12 -2 12 -7
0 -6 7 -10 15 -10 8 0 29 -9 47 -20 44 -27 67 -25 143 9 l65 30 0 105 c0 79
-3 106 -12 105 -7 0 -40 -14 -73 -31z"/>
</g>
</svg>
